<?xml version="1.0" standalone="no"?>
<!DOCTYPE svg PUBLIC "-//W3C//DTD SVG 20010904//EN"
 "http://www.w3.org/TR/2001/REC-SVG-20010904/DTD/svg10.dtd">
<svg version="1.0" xmlns="http://www.w3.org/2000/svg"
 width="300.000000pt" height="299.000000pt" viewBox="0 0 300.000000 299.000000"
 preserveAspectRatio="xMidYMid meet">
<metadata>
Created by potrace 1.10, written by Peter Selinger 2001-2011
</metadata>
<g transform="translate(0.000000,299.000000) scale(0.100000,-0.100000)"
fill="#000000" stroke="none">
<path d="M1853 2775 c-109 -33 -161 -81 -334 -303 -194 -249 -315 -387 -470
-536 l-144 -139 -7 93 c-18 232 -98 384 -236 448 -52 25 -68 27 -177 27 -138
0 -161 -5 -205 -42 -41 -34 -51 -62 -51 -142 0 -82 32 -184 107 -340 63 -131
63 -135 34 -344 -10 -78 -20 -169 -22 -201 -3 -56 -5 -60 -33 -69 -80 -25
-135 -121 -135 -236 0 -72 13 -119 60 -214 89 -177 236 -350 343 -400 126 -60
217 -56 279 13 l37 41 60 -12 c37 -7 113 -9 203 -6 163 5 240 22 386 85 137
59 188 92 396 256 99 79 248 156 595 311 168 75 319 146 337 160 70 53 86 162
35 232 -64 88 -194 121 -336 85 -90 -23 -336 -72 -362 -72 -22 0 244 188 412
292 148 92 178 117 208 173 60 115 -8 252 -162 324 -49 23 -68 26 -161 26 -93
0 -111 -3 -155 -25 -78 -40 -375 -209 -422 -241 -24 -15 -43 -26 -43 -23 0 12
196 293 254 364 106 130 127 198 87 286 -24 53 -93 111 -155 129 -60 18 -166
18 -223 0z m253 -48 c81 -41 114 -90 114 -165 -1 -46 -32 -100 -131 -229 -90
-116 -219 -309 -219 -328 0 -7 6 -18 14 -24 18 -15 -4 -25 268 130 234 134
289 154 390 146 110 -9 225 -74 264 -148 23 -45 18 -140 -9 -180 -24 -35 -35
-44 -282 -204 -172 -113 -308 -211 -323 -236 -8 -12 -7 -22 3 -35 13 -18 17
-18 117 -1 56 9 162 31 235 47 111 25 140 28 182 20 72 -13 111 -32 149 -70
28 -29 32 -41 32 -84 0 -68 -26 -109 -89 -141 -28 -14 -146 -67 -263 -119
-374 -164 -548 -257 -665 -354 -204 -170 -393 -264 -607 -302 -78 -13 -243
-13 -323 1 l-64 11 -50 -47 -50 -47 -72 4 c-102 5 -169 39 -260 130 -130 131
-245 335 -254 452 -11 133 19 201 106 241 48 21 57 43 65 165 3 47 13 130 21
185 24 157 22 167 -44 306 -78 163 -101 241 -101 339 0 75 1 79 30 104 39 33
82 41 205 41 127 -1 183 -23 254 -101 72 -78 120 -226 121 -370 0 -38 5 -56
20 -69 19 -17 21 -17 47 0 51 32 348 339 441 455 51 63 98 122 105 130 7 8 53
67 103 130 100 128 129 159 193 197 98 59 234 67 327 20z"/>
<path d="M1894 2741 c-56 -14 -122 -52 -168 -96 -24 -25 -100 -115 -167 -202
-174 -224 -257 -321 -389 -456 -128 -132 -294 -272 -310 -262 -6 3 -10 45 -10
100 0 237 -77 407 -216 475 -42 21 -63 25 -154 24 -120 0 -152 -10 -188 -64
-20 -30 -23 -43 -18 -90 7 -75 38 -164 103 -300 54 -114 55 -116 54 -205 -1
-50 -8 -133 -16 -185 -23 -148 -30 -306 -16 -385 24 -139 142 -336 287 -480
99 -97 153 -128 263 -149 202 -38 401 -10 610 85 88 41 225 128 276 176 57 54
115 94 222 156 114 66 118 68 282 142 57 25 122 54 145 65 22 10 104 46 180
80 76 33 152 70 168 81 37 27 58 69 58 118 0 31 -7 46 -32 72 -74 74 -148 84
-323 44 -60 -13 -168 -34 -240 -45 -205 -33 -213 -36 -279 -92 -77 -67 -56
-29 26 48 90 84 272 218 466 344 219 142 242 159 270 200 31 47 37 75 23 122
-27 89 -143 172 -258 184 -81 9 -141 -12 -302 -102 -348 -197 -473 -278 -528
-346 -18 -22 -33 -37 -33 -33 0 12 319 485 394 583 110 145 118 159 123 205
14 125 -148 225 -303 188z m185 -51 c59 -30 91 -73 91 -125 0 -46 1 -44 -120
-200 -45 -58 -385 -563 -428 -635 -21 -35 -92 -203 -92 -216 0 -4 23 26 51 67
62 90 153 204 192 242 16 15 70 53 120 83 131 81 476 278 517 295 89 36 235 6
308 -64 99 -95 81 -170 -63 -264 -246 -159 -326 -213 -437 -295 -153 -113
-276 -236 -352 -351 -32 -48 -57 -90 -55 -92 2 -2 65 50 139 116 142 126 153
132 266 143 33 4 137 23 230 43 107 23 197 37 246 37 69 1 80 -2 120 -29 23
-17 47 -43 52 -57 12 -34 -7 -82 -43 -107 -14 -10 -145 -71 -291 -136 -423
-188 -547 -255 -690 -375 -156 -131 -323 -219 -499 -263 -167 -41 -422 -24
-526 37 -140 82 -346 366 -381 525 -20 88 -15 249 12 421 9 58 17 141 18 185
1 78 0 83 -56 195 -120 243 -139 380 -56 409 95 33 233 21 310 -28 97 -62 143
-179 161 -408 12 -143 13 -148 35 -151 28 -4 125 71 271 213 128 123 252 267
430 495 155 199 202 250 260 279 87 45 187 49 260 11z"/>
<path d="M727 1161 c-50 -48 -109 -103 -129 -121 -41 -35 -46 -51 -23 -70 27
-23 63 -1 179 111 116 111 139 148 100 163 -28 11 -33 7 -127 -83z m33 -36
c-82 -82 -156 -143 -164 -134 -6 6 226 217 239 218 5 1 -29 -37 -75 -84z"/>
<path d="M1029 1078 c-46 -34 -138 -99 -204 -143 -122 -83 -140 -105 -102
-129 23 -15 88 20 251 137 175 125 204 151 190 174 -21 34 -49 26 -135 -39z
m101 24 c0 -9 -100 -85 -220 -169 -106 -73 -161 -105 -168 -98 -3 3 -3 6 -1 8
2 2 48 31 102 66 54 35 139 95 189 132 96 72 98 74 98 61z"/>
<path d="M1100 840 c-41 -21 -117 -53 -168 -70 -99 -34 -121 -54 -97 -86 13
-18 15 -18 82 -1 94 24 297 126 302 151 3 17 -22 47 -38 46 -3 -1 -40 -19 -81
-40z m90 -5 c0 -17 -300 -140 -323 -132 -6 2 30 18 79 36 49 17 118 47 154 66
61 32 90 42 90 30z"/>
<path d="M283 1148 c-42 -43 -53 -76 -53 -153 0 -102 48 -214 159 -369 145
-203 327 -298 420 -220 45 38 40 57 -27 103 -176 119 -366 390 -396 564 -20
115 -46 134 -103 75z m67 -26 c0 -144 135 -379 318 -554 44 -42 97 -85 118
-96 l37 -19 -24 -22 c-20 -19 -32 -22 -75 -18 -105 11 -197 77 -303 218 -89
118 -154 254 -159 334 -6 89 4 129 39 165 40 39 49 38 49 -8z"/>
</g>
</svg>
