<?xml version="1.0" standalone="no"?>
<!DOCTYPE svg PUBLIC "-//W3C//DTD SVG 20010904//EN"
 "http://www.w3.org/TR/2001/REC-SVG-20010904/DTD/svg10.dtd">
<svg version="1.0" xmlns="http://www.w3.org/2000/svg"
 width="300.000000pt" height="299.000000pt" viewBox="0 0 300.000000 299.000000"
 preserveAspectRatio="xMidYMid meet">
<metadata>
Created by potrace 1.10, written by Peter Selinger 2001-2011
</metadata>
<g transform="translate(0.000000,299.000000) scale(0.100000,-0.100000)"
fill="#2eaa8c" stroke="none">
<path d="M1170 2705 c-179 -40 -334 -160 -409 -317 -22 -46 -45 -101 -51 -123
l-12 -40 -83 3 c-176 8 -316 -71 -392 -218 -25 -49 -28 -65 -28 -155 0 -87 3
-107 27 -157 14 -31 44 -76 66 -100 l40 -43 -38 -33 c-82 -69 -131 -233 -110
-366 28 -176 117 -292 263 -344 36 -13 49 -23 53 -42 25 -114 74 -188 163
-248 116 -77 267 -111 496 -112 303 0 531 47 771 160 247 116 429 272 570 490
l49 75 50 -3 c28 -2 66 1 86 7 75 22 151 131 186 264 44 171 -29 558 -145 767
-100 181 -297 279 -428 212 l-39 -20 -30 25 c-159 131 -390 245 -608 299 -130
32 -347 42 -447 19z m297 -26 c171 -23 298 -63 473 -151 74 -37 175 -97 223
-134 l88 -66 52 22 c139 60 313 -33 405 -216 89 -178 137 -380 137 -584 0
-125 -3 -152 -22 -198 -57 -140 -121 -195 -221 -191 -32 1 -64 -1 -70 -5 -7
-4 -41 -51 -76 -104 -95 -144 -228 -273 -381 -369 -112 -71 -370 -179 -470
-198 -192 -35 -231 -39 -430 -39 -171 -1 -225 2 -290 18 -99 22 -207 72 -260
119 -39 34 -95 129 -95 162 0 8 -6 31 -14 49 -11 27 -22 35 -61 46 -81 23
-155 86 -200 171 -39 72 -40 77 -43 194 -5 149 13 206 88 285 28 29 50 58 50
64 0 6 -18 34 -41 61 -68 82 -82 119 -87 223 -4 88 -3 96 26 155 69 139 226
221 391 204 41 -5 62 -3 69 6 6 6 25 48 42 92 17 44 41 96 53 115 128 213 366
310 664 269z"/>
<path d="M1245 2650 c-213 -28 -369 -153 -451 -360 -26 -68 -27 -71 -9 -90 13
-14 31 -20 60 -20 61 0 207 27 265 49 64 24 66 10 3 -17 -122 -52 -313 -75
-449 -53 -123 19 -222 -10 -310 -91 -126 -117 -126 -313 2 -442 49 -49 96 -70
204 -90 122 -24 133 -26 128 -32 -3 -2 -60 1 -128 7 -141 13 -189 2 -236 -54
-55 -65 -74 -123 -74 -227 0 -176 65 -289 202 -349 35 -16 77 -22 189 -27 169
-8 220 -23 77 -24 -54 0 -100 1 -102 3 -2 1 -13 -7 -25 -17 -63 -57 35 -214
172 -276 113 -51 201 -65 407 -64 102 0 221 6 265 13 97 15 256 54 310 76 22
9 49 20 60 24 67 27 205 96 205 103 0 4 6 8 14 8 13 0 91 54 163 112 102 82
242 259 308 388 36 71 49 156 42 283 -10 179 -51 369 -112 520 -77 192 -246
360 -488 488 -173 91 -326 138 -517 159 -94 11 -91 11 -175 0z m285 -46 c170
-32 372 -115 525 -215 44 -29 123 -96 176 -149 83 -82 102 -108 142 -190 102
-211 164 -583 127 -758 -23 -103 -176 -323 -298 -428 -186 -159 -421 -272
-678 -325 -138 -29 -475 -38 -589 -16 -199 38 -308 117 -340 247 -6 24 -4 25
42 24 130 -2 413 41 428 66 2 4 -28 8 -68 9 -39 1 -171 8 -293 15 -212 12
-223 14 -274 42 -102 56 -155 159 -155 304 0 73 4 93 28 143 16 32 44 69 65
85 34 26 39 27 126 22 156 -9 298 -3 385 14 96 19 112 26 55 26 -105 0 -452
58 -501 83 -121 64 -181 237 -123 360 28 60 107 131 168 151 56 18 87 20 252
10 198 -11 339 20 457 99 50 35 263 227 250 227 -2 0 -42 -25 -88 -56 -165
-111 -308 -165 -476 -178 l-82 -6 30 72 c72 176 173 269 344 319 78 23 254 24
365 3z"/>
<path d="M2185 1940 c-22 -5 -107 -13 -190 -20 -82 -6 -158 -13 -167 -16 -28
-8 -34 -52 -11 -75 18 -18 27 -19 156 -9 230 16 306 29 324 57 14 21 14 25 -1
48 -18 27 -38 29 -111 15z m81 -48 c-13 -22 -412 -59 -432 -40 -17 18 16 26
133 32 70 4 164 13 208 20 77 12 104 8 91 -12z"/>
<path d="M2160 1644 c-63 -19 -200 -52 -304 -73 -111 -23 -192 -44 -197 -52
-14 -22 -10 -55 7 -70 14 -11 44 -8 198 23 222 46 434 103 458 125 23 21 23
45 0 66 -24 22 -25 21 -162 -19z m140 -19 c0 -8 -2 -15 -4 -15 -2 0 -62 -16
-132 -36 -108 -29 -448 -104 -476 -104 -16 0 -8 29 10 34 9 2 87 19 172 36 85
18 177 39 205 46 27 8 59 16 70 19 11 3 40 11 65 19 61 19 90 19 90 1z"/>
<path d="M2265 1434 c-41 -32 -183 -104 -275 -140 -52 -20 -103 -45 -114 -54
-25 -24 -15 -67 18 -76 54 -13 435 171 458 222 22 48 -42 83 -87 48z m55 -37
c0 -36 -399 -222 -424 -197 -14 14 -4 20 112 66 51 21 134 61 185 90 94 54
127 64 127 41z"/>
<path d="M2345 2330 c-12 -4 -27 -15 -34 -24 -12 -15 -10 -22 18 -59 123 -162
173 -283 221 -532 28 -147 36 -313 21 -410 -12 -70 -11 -78 6 -97 13 -15 26
-19 50 -15 57 10 90 43 136 135 l42 87 0 135 c0 92 -6 162 -18 220 -25 115
-80 280 -120 354 -38 72 -117 155 -174 185 -46 23 -117 33 -148 21z m135 -48
c59 -27 134 -111 173 -193 81 -171 131 -393 126 -564 -4 -105 -6 -115 -41
-187 -22 -42 -50 -83 -64 -93 -35 -22 -90 -26 -86 -5 38 173 22 389 -49 645
-37 136 -90 250 -157 338 -29 37 -52 70 -52 72 0 8 47 13 80 8 19 -3 51 -12
70 -21z"/>
</g>
</svg>
