<?xml version="1.0" standalone="no"?>
<!DOCTYPE svg PUBLIC "-//W3C//DTD SVG 20010904//EN"
 "http://www.w3.org/TR/2001/REC-SVG-20010904/DTD/svg10.dtd">
<svg version="1.0" xmlns="http://www.w3.org/2000/svg"
 width="300.000000pt" height="276.000000pt" viewBox="0 0 300.000000 276.000000"
 preserveAspectRatio="xMidYMid meet">
<metadata>
Created by potrace 1.10, written by Peter Selinger 2001-2011
</metadata>
<g transform="translate(0.000000,276.000000) scale(0.100000,-0.100000)"
fill="#000000" stroke="none">
<path d="M1054 2394 c-96 -16 -227 -56 -307 -94 -50 -24 -59 -25 -70 -12 -19
24 -88 52 -128 52 -100 0 -216 -68 -298 -177 -67 -89 -152 -256 -186 -365 -24
-77 -27 -100 -23 -185 7 -155 61 -238 162 -245 37 -3 39 -5 55 -58 95 -305
389 -589 738 -713 215 -77 441 -53 681 73 l93 49 77 -33 c115 -49 370 -179
512 -260 120 -68 128 -71 200 -74 68 -3 79 -1 120 26 67 43 103 114 108 218 7
128 -35 240 -120 320 -30 28 -260 176 -443 283 l-70 41 50 -5 c28 -2 122 -12
210 -21 88 -9 191 -22 228 -30 135 -28 212 -11 274 59 90 102 62 289 -61 413
-101 100 -189 125 -621 174 -369 42 -339 33 -347 107 -27 244 -179 405 -430
457 -94 19 -289 20 -404 0z m350 -24 c127 -19 260 -77 332 -145 54 -52 109
-170 120 -260 10 -83 15 -103 28 -114 18 -15 88 -26 321 -51 235 -26 418 -55
482 -76 62 -21 144 -76 176 -117 126 -165 90 -379 -68 -403 -48 -7 -64 -5
-205 20 -47 8 -157 22 -245 30 -142 13 -162 13 -183 0 -36 -24 -15 -46 127
-131 71 -43 173 -105 227 -138 120 -72 177 -127 212 -203 24 -50 27 -69 27
-162 0 -96 -2 -109 -27 -150 -38 -66 -92 -93 -172 -88 -57 3 -78 12 -217 90
-185 103 -342 182 -472 238 l-97 41 -82 -45 c-171 -93 -360 -135 -520 -117
-251 30 -565 219 -734 444 -51 69 -117 193 -145 276 -24 68 -44 91 -82 91 -43
0 -86 30 -110 75 -29 56 -35 205 -12 295 23 91 112 271 178 361 119 161 281
217 394 136 39 -28 40 -28 133 17 150 73 431 112 614 86z"/>
<path d="M1159 2360 c-281 -27 -529 -146 -658 -316 -59 -77 -148 -254 -187
-369 -31 -92 -42 -222 -26 -288 19 -76 83 -216 132 -290 131 -201 355 -372
600 -458 79 -29 121 -34 250 -34 124 1 203 19 325 75 102 46 120 87 50 116
-43 18 -46 26 -5 14 17 -5 31 -9 33 -9 49 0 425 -174 671 -311 89 -49 178 -92
198 -95 156 -28 253 196 164 379 -37 75 -94 131 -196 192 -47 28 -134 81 -195
118 -184 114 -315 187 -369 207 -44 16 -46 18 -16 14 19 -2 118 -11 220 -19
258 -22 367 -34 496 -56 128 -21 171 -16 215 26 91 87 70 251 -47 366 -84 83
-169 111 -429 142 -71 8 -209 25 -305 36 -201 24 -317 50 -413 93 -89 40 -81
45 11 7 85 -36 139 -42 155 -18 18 27 -7 141 -48 224 -93 189 -322 282 -626
254z m305 -50 c146 -37 245 -109 299 -217 32 -62 63 -203 46 -203 -5 0 -45 13
-90 30 -112 41 -194 97 -289 197 -44 46 -80 82 -80 80 0 -11 135 -206 163
-235 47 -49 114 -89 204 -122 108 -39 195 -54 515 -90 328 -37 433 -58 506
-102 87 -53 140 -132 149 -223 7 -63 -8 -113 -43 -146 -32 -30 -100 -32 -254
-7 -58 10 -213 27 -345 38 -132 11 -283 25 -335 31 -54 6 -136 8 -190 4 -101
-8 -198 -22 -165 -24 52 -4 248 -32 320 -47 94 -18 183 -64 508 -264 136 -84
225 -145 250 -173 134 -150 91 -412 -67 -410 -37 1 -72 16 -198 86 -275 153
-529 272 -675 317 -86 27 -232 50 -308 50 l-60 -1 165 -59 c91 -33 170 -62
175 -64 16 -6 -140 -75 -224 -99 -116 -33 -288 -30 -394 6 -364 126 -646 406
-727 722 -18 69 -19 89 -10 149 30 192 168 471 286 575 108 95 282 173 461
205 121 22 314 20 407 -4z"/>
<path d="M577 1943 c-12 -11 -8 -50 6 -60 18 -15 159 -66 255 -93 91 -26 117
-22 117 21 0 21 -14 28 -170 81 -171 57 -196 64 -208 51z m109 -54 c69 -27
146 -51 212 -66 12 -3 22 -9 22 -14 0 -11 7 -12 -75 11 -99 28 -245 83 -245
92 0 12 2 11 86 -23z"/>
<path d="M505 1730 c-36 -40 -6 -62 263 -192 201 -98 237 -106 237 -53 0 28
-6 32 -151 100 -83 38 -190 91 -237 118 -48 26 -88 47 -90 47 -2 0 -12 -9 -22
-20z m123 -69 c86 -49 303 -151 321 -151 5 0 14 -7 21 -15 7 -8 8 -15 2 -15
-30 0 -415 190 -446 221 -24 23 21 5 102 -40z"/>
<path d="M453 1563 c-7 -2 -13 -17 -13 -33 0 -23 16 -42 83 -100 45 -39 115
-94 155 -121 60 -40 77 -47 93 -39 11 6 19 21 19 35 0 19 -16 35 -74 74 -41
28 -108 82 -150 121 -73 67 -86 75 -113 63z m154 -138 c33 -27 82 -65 109 -84
27 -19 44 -36 37 -38 -25 -9 -283 195 -283 224 0 10 13 3 39 -19 21 -18 65
-55 98 -83z"/>
<path d="M475 2277 c-137 -56 -272 -234 -352 -466 -55 -160 -42 -305 33 -371
39 -34 69 -38 82 -12 6 9 15 54 21 100 13 104 56 233 117 354 62 124 117 199
205 281 l73 67 -26 26 c-31 31 -104 41 -153 21z m138 -36 c9 -10 8 -15 -8 -23
-11 -7 -44 -35 -74 -62 -146 -138 -295 -464 -303 -663 -2 -48 -4 -52 -23 -47
-70 20 -107 139 -81 263 44 212 200 461 329 526 41 21 62 25 100 22 27 -2 54
-10 60 -16z"/>
</g>
</svg>
